<svg width="50" height="50" viewBox="0 0 50 50" fill="none" xmlns="http://www.w3.org/2000/svg">
<circle cx="25" cy="25" r="25" fill="#3580FF"/>
<path d="M25.75 17C25.75 16.5858 25.4142 16.25 25 16.25C24.5858 16.25 24.25 16.5858 24.25 17L24.25 24.25H17C16.5858 24.25 16.25 24.5858 16.25 25C16.25 25.4142 16.5858 25.75 17 25.75H24.25V33C24.25 33.4142 24.5858 33.75 25 33.75C25.4142 33.75 25.75 33.4142 25.75 33V25.75H33C33.4142 25.75 33.75 25.4142 33.75 25C33.75 24.5858 33.4142 24.25 33 24.25H25.75L25.75 17Z" fill="white"/>
</svg>
