<svg width="87" height="81" viewBox="0 0 87 81" fill="none" xmlns="http://www.w3.org/2000/svg">
<path d="M16.6938 78.9995C14.5761 79.0007 12.5056 78.3668 10.7438 77.1779C8.98211 75.9891 7.60828 74.2986 6.79595 72.3202C5.98361 70.3417 5.76923 68.1641 6.17989 66.0624C6.59056 63.9608 7.60783 62.0294 9.10318 60.5124C9.5645 60.048 10.0713 59.6323 10.6159 59.2717C10.7998 59.1407 10.9634 59.0373 11.1405 58.9339C11.5357 58.6996 11.9309 58.4928 12.2989 58.3204C12.5033 58.2308 12.7077 58.1343 12.9258 58.0516C13.3579 57.8853 13.7993 57.7449 14.2477 57.6311L14.5202 57.5553L14.6837 57.514L17.0686 57.3485C17.3684 57.3485 17.6955 57.3968 18.0362 57.445H18.1725H18.4723H18.5677H18.6767H18.7721H19.2967C21.3762 57.4282 23.4316 56.993 25.3431 56.1646C27.2546 55.3362 28.9841 54.1312 30.4306 52.6199C31.8837 51.1245 33.0269 49.3506 33.7933 47.4023C34.5597 45.454 34.9338 43.3705 34.8937 41.274V41.1568V41.0258C34.8756 40.9094 34.8642 40.7921 34.8596 40.6743C34.8596 40.5364 34.846 40.3986 34.8188 40.2607V40.0195C34.8188 39.8058 34.7779 39.6059 34.7642 39.3991L34.9414 36.9796C34.9565 36.919 34.9746 36.8592 34.9959 36.8004L35.0368 36.6488C35.1398 36.1806 35.2741 35.72 35.4388 35.2702C35.5142 35.0544 35.6006 34.8427 35.6978 34.636C35.8671 34.2497 36.0558 33.8724 36.2633 33.5056C36.3655 33.3332 36.4677 33.1609 36.5836 32.9886C36.9463 32.4384 37.3592 31.9238 37.8169 31.4514C39.83 29.4186 42.559 28.2779 45.4035 28.2805C48.248 28.2831 50.975 29.4287 52.9846 31.4652C54.9941 33.5018 56.1216 36.2625 56.1191 39.14C56.1165 42.0175 54.9841 44.7762 52.9709 46.8091C52.5061 47.2695 51.9996 47.6849 51.4583 48.0498C51.2811 48.1739 51.1107 48.2773 50.9404 48.3738C50.5666 48.6034 50.1798 48.8105 49.782 48.9942C49.5708 49.0907 49.3596 49.1872 49.162 49.263C48.7382 49.4257 48.3032 49.5571 47.8605 49.6559L47.6016 49.7248L47.4313 49.78L45.0191 49.9523C44.7398 49.9523 44.44 49.8972 44.1265 49.8558H43.9153H43.6155H43.5337H43.4111H42.791C38.6138 49.9121 34.6285 51.6389 31.7059 54.6587C28.7834 57.6784 27.1612 61.7457 27.194 65.9717V66.0958V66.2129C27.2121 66.3294 27.2235 66.4467 27.2281 66.5645C27.2281 66.7092 27.2281 66.8402 27.269 66.9781C27.2757 67.1051 27.2893 67.2317 27.3099 67.3572C27.3099 67.5226 27.3099 67.688 27.3099 67.8535V67.9086L27.1395 70.2316C27.1395 70.2798 27.0509 70.5487 27.0305 70.6314C26.9301 71.0995 26.798 71.5601 26.6353 72.01C26.5637 72.2195 26.4795 72.4243 26.3832 72.6234C26.1968 73.0359 25.9898 73.4385 25.7631 73.8297C25.6609 73.9952 25.5451 74.1882 25.4224 74.3674C25.0655 74.9096 24.657 75.4152 24.2027 75.877C22.2076 77.8831 19.5069 79.0062 16.6938 78.9995Z" fill="#3580FF"/>
<path d="M47.6236 80.9995C45.5072 80.9993 43.4384 80.365 41.6781 79.1765C39.9179 77.9879 38.5451 76.2986 37.733 74.3215C36.921 72.3445 36.706 70.1684 37.1153 68.0679C37.5247 65.9674 38.5399 64.0367 40.0329 62.5194C40.5009 62.0528 41.012 61.6327 41.5592 61.2648C41.7159 61.1545 41.8863 61.0511 42.0634 60.9477C42.441 60.7188 42.8299 60.5094 43.2286 60.3205L43.8487 60.0516C44.272 59.898 44.7044 59.7714 45.1433 59.6725L45.5658 59.5485L47.9915 59.3692C48.2777 59.3692 48.5843 59.4244 48.9046 59.4657H49.0886H49.4088H49.5246H49.5996H49.7018H50.2333C54.4069 59.404 58.387 57.6749 61.3052 54.6557C64.2233 51.6365 65.8426 47.5723 65.8098 43.3499V42.8467L65.7689 42.7915C65.7651 42.7734 65.7651 42.7546 65.7689 42.7364V42.3779L65.7281 42.0333C65.7281 41.8403 65.6804 41.6542 65.6735 41.4612L65.8371 39.1176C65.8371 39.0555 65.9325 38.766 65.9529 38.6833C66.037 38.231 66.1485 37.7844 66.2868 37.346C66.3642 37.1323 66.4529 36.9229 66.5525 36.7188C66.7357 36.3127 66.9404 35.9169 67.1658 35.5332L67.2135 35.4574C67.2952 35.3126 67.377 35.1747 67.4724 35.0369C67.8383 34.4828 68.2534 33.9637 68.7125 33.486C70.7236 31.4533 73.4501 30.3115 76.293 30.3115C79.1358 30.3115 81.8623 31.4533 83.8734 33.486C85.8761 35.5239 87.0002 38.2808 87.0002 41.1544C87.0002 44.0281 85.8761 46.7849 83.8734 48.8229C83.4027 49.2795 82.8944 49.6945 82.3539 50.0637L81.9996 50.2911L81.8156 50.4083C81.4494 50.6263 81.0718 50.8242 80.6845 51.0011C80.4665 51.1045 80.2689 51.1941 80.0576 51.2768C79.6281 51.4344 79.1888 51.5634 78.7426 51.6628L78.47 51.7456L78.3065 51.7869L75.9216 51.9592C75.5741 51.9592 75.1993 51.8903 74.8314 51.8421H74.518H74.4634H74.259H73.7275C69.5433 51.8893 65.5485 53.6144 62.6204 56.6386C59.6923 59.6627 58.0702 63.7388 58.1101 67.9717V68.0958V68.213C58.1169 68.337 58.1169 68.4612 58.1101 68.5852C58.1101 68.7093 58.1101 68.8402 58.1442 68.9574C58.1783 69.0746 58.1442 69.1918 58.1442 69.3228C58.1705 69.5055 58.1864 69.6896 58.1919 69.8742L58.1101 72.2523L58.0079 72.6245C57.9049 73.092 57.7729 73.5524 57.6127 74.0031C57.5446 74.1961 57.456 74.3891 57.3742 74.5821L57.3402 74.6511C57.1619 75.0437 56.9617 75.4257 56.7405 75.7953C56.6315 75.9814 56.5293 76.1606 56.4135 76.333C55.4429 77.7843 54.1322 78.97 52.5985 79.7842C51.0648 80.5985 49.3556 81.016 47.6236 80.9995Z" fill="#3580FF"/>
<path d="M10.7281 50.7523C8.60842 50.7542 6.53578 50.1204 4.77221 48.9308C3.00863 47.7412 1.63331 46.0494 0.820126 44.0692C0.00694519 42.089 -0.207578 39.9094 0.203678 37.8058C0.614934 35.7023 1.6335 33.7694 3.1306 32.2514C3.59863 31.7897 4.10723 31.3721 4.6501 31.0038L5.17477 30.666C5.54272 30.4454 5.92429 30.2455 6.32631 30.0525C6.53073 29.9629 6.73515 29.8664 6.96 29.7837C7.37834 29.6291 7.80627 29.5024 8.24101 29.4046L8.51357 29.3288C8.56032 29.3118 8.60812 29.298 8.65666 29.2874L11.0824 29.1082C11.3958 29.1082 11.7638 29.1702 12.0977 29.2185H12.1726H12.4929H12.5951H12.6973H13.3514C15.4274 29.199 17.4789 28.7624 19.3868 27.934C21.2946 27.1057 23.0207 25.9022 24.4649 24.3934C25.9169 22.8961 27.0589 21.1207 27.8241 19.1713C28.5893 17.2219 28.9623 15.1376 28.9211 13.0405V12.9234V12.8062C28.8971 12.6742 28.8834 12.5405 28.8803 12.4064V12.0755L28.7917 11.7584C28.7917 11.5654 28.744 11.3587 28.7372 11.1588L28.9007 8.88406V8.82891V8.78756C28.9007 8.73241 29.0029 8.42912 29.0029 8.42912C29.1065 7.9618 29.2385 7.50139 29.3981 7.05052C29.4731 6.84373 29.5685 6.63693 29.6639 6.43014C29.8427 6.02196 30.0476 5.62593 30.2771 5.24454V5.18251C30.3725 5.02397 30.4611 4.86543 30.5701 4.71378C30.928 4.16807 31.3364 3.65799 31.7898 3.19043C33.803 1.15022 36.5348 0.00258976 39.3844 4.37769e-06C42.234 -0.00258101 44.968 1.14009 46.9847 3.17664C49.0015 5.21319 50.136 7.9768 50.1385 10.8595C50.1411 13.7422 49.0115 16.5079 46.9984 18.5481C46.5329 19.0058 46.0265 19.4188 45.4857 19.7819C45.3222 19.8991 45.1791 19.9818 45.036 20.0714L44.9542 20.1197C44.559 20.354 44.1774 20.5608 43.8095 20.7332C43.5914 20.8297 43.3938 20.9262 43.1894 21.002C42.7594 21.1599 42.3202 21.2912 41.8743 21.3949C41.7799 21.4151 41.6867 21.4405 41.595 21.4707L41.4246 21.519L39.0466 21.6844C38.7467 21.6844 38.4265 21.6292 38.0926 21.5879H37.9427H37.6361H37.4385H37.3295H36.798C32.6232 21.6496 28.642 23.3797 25.7237 26.4004C22.8053 29.4211 21.1868 33.487 21.2215 37.7107V37.8278V37.9519C21.2399 38.0729 21.2513 38.1949 21.2555 38.3172C21.2555 38.4482 21.2555 38.5723 21.2896 38.6964C21.3237 38.8204 21.2896 38.9307 21.3305 39.0548C21.3542 39.2331 21.3679 39.4126 21.3714 39.5925L21.201 41.9568C21.1883 42.0196 21.1724 42.0817 21.1533 42.1429L21.092 42.3566C20.9945 42.8247 20.8647 43.2854 20.7036 43.7352C20.6286 43.9419 20.5264 44.1556 20.431 44.3693C20.2579 44.7674 20.0645 45.1562 19.8519 45.5342C19.7428 45.7272 19.6406 45.8996 19.5248 46.065C19.1638 46.6165 18.7507 47.1313 18.2915 47.6021C17.2999 48.6093 16.1211 49.4079 14.823 49.9521C13.5249 50.4963 12.1332 50.7753 10.7281 50.7729V50.7523Z" fill="#3580FF"/>
</svg>
